<?xml version="1.0" encoding="utf-8" standalone="no"?>
<!DOCTYPE svg PUBLIC "-//W3C//DTD SVG 1.1//EN"
  "http://www.w3.org/Graphics/SVG/1.1/DTD/svg11.dtd">
<svg xmlns:xlink="http://www.w3.org/1999/xlink" width="285.139762pt" height="186.796157pt" viewBox="0 0 285.139762 186.796157" xmlns="http://www.w3.org/2000/svg" version="1.1">
 <metadata>
  <rdf:RDF xmlns:dc="http://purl.org/dc/elements/1.1/" xmlns:cc="http://creativecommons.org/ns#" xmlns:rdf="http://www.w3.org/1999/02/22-rdf-syntax-ns#">
   <cc:Work>
    <dc:type rdf:resource="http://purl.org/dc/dcmitype/StillImage"/>
    <dc:date>2026-10-02T08:54:15.344026</dc:date>
    <dc:format>image/svg+xml</dc:format>
    <dc:creator>
     <cc:Agent>
      <dc:title>Matplotlib v3.10.8, https://matplotlib.org/</dc:title>
     </cc:Agent>
    </dc:creator>
   </cc:Work>
  </rdf:RDF>
 </metadata>
 <defs>
  <style type="text/css">*{stroke-linejoin: round; stroke-linecap: butt}</style>
 </defs>
 <g id="figure_1">
  <g id="patch_1">
   <path d="M 0 186.796157 
L 285.139762 186.796157 
L 285.139762 0 
L 0 0 
L 0 186.796157 
z
" style="fill: none"/>
  </g>
  <g id="axes_1">
   <g id="patch_2">
    <path d="M 42.046219 162.95811 
L 283.699762 162.95811 
L 283.699762 1.44 
L 42.046219 1.44 
L 42.046219 162.95811 
z
" style="fill: none"/>
   </g>
   <g id="matplotlib.axis_1">
    <g id="xtick_1">
     <g id="line2d_1">
      <defs>
       <path id="me49688c568" d="M 0 0 
L 0 2.4 
" style="stroke: #000000; stroke-width: 0.6"/>
      </defs>
      <g>
       <use xlink:href="#me49688c568" x="63.001241" y="162.95811" style="stroke: #000000; stroke-width: 0.6"/>
      </g>
     </g>
     <g id="text_1">
      <text style="font-size: 6.5px; font-family: 'Helvetica', 'Arial', 'DejaVu Sans', sans-serif; text-anchor: middle" x="63.001241" y="173.520845" transform="rotate(-0 63.001241 173.520845)">500</text>
     </g>
    </g>
    <g id="xtick_2">
     <g id="line2d_2">
      <g>
       <use xlink:href="#me49688c568" x="115.927498" y="162.95811" style="stroke: #000000; stroke-width: 0.6"/>
      </g>
     </g>
     <g id="text_2">
      <text style="font-size: 6.5px; font-family: 'Helvetica', 'Arial', 'DejaVu Sans', sans-serif; text-anchor: middle" x="115.927498" y="173.520845" transform="rotate(-0 115.927498 173.520845)">1,000</text>
     </g>
    </g>
    <g id="xtick_3">
     <g id="line2d_3">
      <g>
       <use xlink:href="#me49688c568" x="168.853755" y="162.95811" style="stroke: #000000; stroke-width: 0.6"/>
      </g>
     </g>
     <g id="text_3">
      <text style="font-size: 6.5px; font-family: 'Helvetica', 'Arial', 'DejaVu Sans', sans-serif; text-anchor: middle" x="168.853755" y="173.520845" transform="rotate(-0 168.853755 173.520845)">2,000</text>
     </g>
    </g>
    <g id="xtick_4">
     <g id="line2d_4">
      <g>
       <use xlink:href="#me49688c568" x="238.81846" y="162.95811" style="stroke: #000000; stroke-width: 0.6"/>
      </g>
     </g>
     <g id="text_4">
      <text style="font-size: 6.5px; font-family: 'Helvetica', 'Arial', 'DejaVu Sans', sans-serif; text-anchor: middle" x="238.81846" y="173.520845" transform="rotate(-0 238.81846 173.520845)">5,000</text>
     </g>
    </g>
    <g id="text_5">
     <!-- network size $N$ -->
     <g transform="translate(139.80799 183.897095)">
      <text>
       <tspan x="0" y="-0.890625" style="font-size: 7px; font-family: 'Helvetica'">n</tspan>
       <tspan x="3.893066" y="-0.890625" style="font-size: 7px; font-family: 'Helvetica'">e</tspan>
       <tspan x="7.786133" y="-0.890625" style="font-size: 7px; font-family: 'Helvetica'">t</tspan>
       <tspan x="9.730957" y="-0.890625" style="font-size: 7px; font-family: 'Helvetica'">w</tspan>
       <tspan x="14.786133" y="-0.890625" style="font-size: 7px; font-family: 'Helvetica'">o</tspan>
       <tspan x="18.679199" y="-0.890625" style="font-size: 7px; font-family: 'Helvetica'">r</tspan>
       <tspan x="21.010254" y="-0.890625" style="font-size: 7px; font-family: 'Helvetica'">k</tspan>
       <tspan x="24.510254" y="-0.890625" style="font-size: 7px; font-family: 'Helvetica'"> </tspan>
       <tspan x="26.455078" y="-0.890625" style="font-size: 7px; font-family: 'Helvetica'">s</tspan>
       <tspan x="29.955078" y="-0.890625" style="font-size: 7px; font-family: 'Helvetica'">i</tspan>
       <tspan x="31.510254" y="-0.890625" style="font-size: 7px; font-family: 'Helvetica'">z</tspan>
       <tspan x="35.010254" y="-0.890625" style="font-size: 7px; font-family: 'Helvetica'">e</tspan>
       <tspan x="38.90332" y="-0.890625" style="font-size: 7px; font-family: 'Helvetica'"> </tspan>
       <tspan x="40.848145" y="-0.890625" style="font-style: oblique; font-size: 7px; font-family: 'DejaVu Sans'">N</tspan>
      </text>
     </g>
    </g>
   </g>
   <g id="matplotlib.axis_2">
    <g id="ytick_1">
     <g id="line2d_5">
      <path d="M 42.046219 150.66219 
L 283.699762 150.66219 
" clip-path="url(#p6361609ad9)" style="fill: none; stroke: #e1e0d9; stroke-opacity: 0.22; stroke-width: 0.5; stroke-linecap: square"/>
     </g>
     <g id="line2d_6">
      <defs>
       <path id="m6e3856c652" d="M 0 0 
L -2.4 0 
" style="stroke: #000000; stroke-width: 0.6"/>
      </defs>
      <g>
       <use xlink:href="#m6e3856c652" x="42.046219" y="150.66219" style="stroke: #000000; stroke-width: 0.6"/>
      </g>
     </g>
     <g id="text_6">
      <text style="font-size: 6.5px; font-family: 'Helvetica', 'Arial', 'DejaVu Sans', sans-serif; text-anchor: end" x="36.146219" y="152.993557" transform="rotate(-0 36.146219 152.993557)">10%</text>
     </g>
    </g>
    <g id="ytick_2">
     <g id="line2d_7">
      <path d="M 42.046219 112.467573 
L 283.699762 112.467573 
" clip-path="url(#p6361609ad9)" style="fill: none; stroke: #e1e0d9; stroke-opacity: 0.22; stroke-width: 0.5; stroke-linecap: square"/>
     </g>
     <g id="line2d_8">
      <g>
       <use xlink:href="#m6e3856c652" x="42.046219" y="112.467573" style="stroke: #000000; stroke-width: 0.6"/>
      </g>
     </g>
     <g id="text_7">
      <text style="font-size: 6.5px; font-family: 'Helvetica', 'Arial', 'DejaVu Sans', sans-serif; text-anchor: end" x="36.146219" y="114.79894" transform="rotate(-0 36.146219 114.79894)">20%</text>
     </g>
    </g>
    <g id="ytick_3">
     <g id="line2d_9">
      <path d="M 42.046219 61.977036 
L 283.699762 61.977036 
" clip-path="url(#p6361609ad9)" style="fill: none; stroke: #e1e0d9; stroke-opacity: 0.22; stroke-width: 0.5; stroke-linecap: square"/>
     </g>
     <g id="line2d_10">
      <g>
       <use xlink:href="#m6e3856c652" x="42.046219" y="61.977036" style="stroke: #000000; stroke-width: 0.6"/>
      </g>
     </g>
     <g id="text_8">
      <text style="font-size: 6.5px; font-family: 'Helvetica', 'Arial', 'DejaVu Sans', sans-serif; text-anchor: end" x="36.146219" y="64.308403" transform="rotate(-0 36.146219 64.308403)">50%</text>
     </g>
    </g>
    <g id="ytick_4">
     <g id="line2d_11">
      <path d="M 42.046219 23.782419 
L 283.699762 23.782419 
" clip-path="url(#p6361609ad9)" style="fill: none; stroke: #e1e0d9; stroke-opacity: 0.22; stroke-width: 0.5; stroke-linecap: square"/>
     </g>
     <g id="line2d_12">
      <g>
       <use xlink:href="#m6e3856c652" x="42.046219" y="23.782419" style="stroke: #000000; stroke-width: 0.6"/>
      </g>
     </g>
     <g id="text_9">
      <text style="font-size: 6.5px; font-family: 'Helvetica', 'Arial', 'DejaVu Sans', sans-serif; text-anchor: end" x="36.146219" y="26.113786" transform="rotate(-0 36.146219 26.113786)">100%</text>
     </g>
    </g>
    <g id="text_10">
     <text style="font-size: 7px; font-family: 'Helvetica', 'Arial', 'DejaVu Sans', sans-serif" transform="translate(6.461406 104.763118) rotate(-90)">units that work</text>
     <!-- (% of $N$, read at 1.07$\times$ each run's own loss floor) -->
     <g transform="translate(14.052469 158.079055) rotate(-90)">
      <text>
       <tspan x="0" y="-0.890625" style="font-size: 7px; font-family: 'Helvetica'">(</tspan>
       <tspan x="2.331055" y="-0.890625" style="font-size: 7px; font-family: 'Helvetica'">%</tspan>
       <tspan x="8.555176" y="-0.890625" style="font-size: 7px; font-family: 'Helvetica'"> </tspan>
       <tspan x="10.5" y="-0.890625" style="font-size: 7px; font-family: 'Helvetica'">o</tspan>
       <tspan x="14.393066" y="-0.890625" style="font-size: 7px; font-family: 'Helvetica'">f</tspan>
       <tspan x="16.337891" y="-0.890625" style="font-size: 7px; font-family: 'Helvetica'"> </tspan>
       <tspan x="23.519043" y="-0.890625" style="font-size: 7px; font-family: 'Helvetica'">,</tspan>
       <tspan x="25.463867" y="-0.890625" style="font-size: 7px; font-family: 'Helvetica'"> </tspan>
       <tspan x="27.408691" y="-0.890625" style="font-size: 7px; font-family: 'Helvetica'">r</tspan>
       <tspan x="29.739746" y="-0.890625" style="font-size: 7px; font-family: 'Helvetica'">e</tspan>
       <tspan x="33.632812" y="-0.890625" style="font-size: 7px; font-family: 'Helvetica'">a</tspan>
       <tspan x="37.525879" y="-0.890625" style="font-size: 7px; font-family: 'Helvetica'">d</tspan>
       <tspan x="41.418945" y="-0.890625" style="font-size: 7px; font-family: 'Helvetica'"> </tspan>
       <tspan x="43.36377" y="-0.890625" style="font-size: 7px; font-family: 'Helvetica'">a</tspan>
       <tspan x="47.256836" y="-0.890625" style="font-size: 7px; font-family: 'Helvetica'">t</tspan>
       <tspan x="49.20166" y="-0.890625" style="font-size: 7px; font-family: 'Helvetica'"> </tspan>
       <tspan x="51.146484" y="-0.890625" style="font-size: 7px; font-family: 'Helvetica'">1</tspan>
       <tspan x="55.039551" y="-0.890625" style="font-size: 7px; font-family: 'Helvetica'">.</tspan>
       <tspan x="56.984375" y="-0.890625" style="font-size: 7px; font-family: 'Helvetica'">0</tspan>
       <tspan x="60.877441" y="-0.890625" style="font-size: 7px; font-family: 'Helvetica'">7</tspan>
       <tspan x="70.635742" y="-0.890625" style="font-size: 7px; font-family: 'Helvetica'"> </tspan>
       <tspan x="72.580566" y="-0.890625" style="font-size: 7px; font-family: 'Helvetica'">e</tspan>
       <tspan x="76.473633" y="-0.890625" style="font-size: 7px; font-family: 'Helvetica'">a</tspan>
       <tspan x="80.366699" y="-0.890625" style="font-size: 7px; font-family: 'Helvetica'">c</tspan>
       <tspan x="83.866699" y="-0.890625" style="font-size: 7px; font-family: 'Helvetica'">h</tspan>
       <tspan x="87.759766" y="-0.890625" style="font-size: 7px; font-family: 'Helvetica'"> </tspan>
       <tspan x="89.70459" y="-0.890625" style="font-size: 7px; font-family: 'Helvetica'">r</tspan>
       <tspan x="92.035645" y="-0.890625" style="font-size: 7px; font-family: 'Helvetica'">u</tspan>
       <tspan x="95.928711" y="-0.890625" style="font-size: 7px; font-family: 'Helvetica'">n</tspan>
       <tspan x="99.821777" y="-0.890625" style="font-size: 7px; font-family: 'Helvetica'">'</tspan>
       <tspan x="101.158203" y="-0.890625" style="font-size: 7px; font-family: 'Helvetica'">s</tspan>
       <tspan x="104.658203" y="-0.890625" style="font-size: 7px; font-family: 'Helvetica'"> </tspan>
       <tspan x="106.603027" y="-0.890625" style="font-size: 7px; font-family: 'Helvetica'">o</tspan>
       <tspan x="110.496094" y="-0.890625" style="font-size: 7px; font-family: 'Helvetica'">w</tspan>
       <tspan x="115.55127" y="-0.890625" style="font-size: 7px; font-family: 'Helvetica'">n</tspan>
       <tspan x="119.444336" y="-0.890625" style="font-size: 7px; font-family: 'Helvetica'"> </tspan>
       <tspan x="121.38916" y="-0.890625" style="font-size: 7px; font-family: 'Helvetica'">l</tspan>
       <tspan x="122.944336" y="-0.890625" style="font-size: 7px; font-family: 'Helvetica'">o</tspan>
       <tspan x="126.837402" y="-0.890625" style="font-size: 7px; font-family: 'Helvetica'">s</tspan>
       <tspan x="130.337402" y="-0.890625" style="font-size: 7px; font-family: 'Helvetica'">s</tspan>
       <tspan x="133.837402" y="-0.890625" style="font-size: 7px; font-family: 'Helvetica'"> </tspan>
       <tspan x="135.782227" y="-0.890625" style="font-size: 7px; font-family: 'Helvetica'">f</tspan>
       <tspan x="137.727051" y="-0.890625" style="font-size: 7px; font-family: 'Helvetica'">l</tspan>
       <tspan x="139.282227" y="-0.890625" style="font-size: 7px; font-family: 'Helvetica'">o</tspan>
       <tspan x="143.175293" y="-0.890625" style="font-size: 7px; font-family: 'Helvetica'">o</tspan>
       <tspan x="147.068359" y="-0.890625" style="font-size: 7px; font-family: 'Helvetica'">r</tspan>
       <tspan x="149.399414" y="-0.890625" style="font-size: 7px; font-family: 'Helvetica'">)</tspan>
       <tspan x="18.282715" y="-0.890625" style="font-style: oblique; font-size: 7px; font-family: 'DejaVu Sans'">N</tspan>
       <tspan x="64.770508" y="-0.890625" style="font-size: 7px; font-family: 'DejaVu Sans'">×</tspan>
      </text>
     </g>
    </g>
   </g>
   <g id="line2d_13">
    <path d="M 42.046219 23.782419 
L 283.699762 23.782419 
" clip-path="url(#p6361609ad9)" style="fill: none; stroke-dasharray: 0.8,1.32; stroke-dashoffset: 0; stroke: #a8a69e; stroke-width: 0.8"/>
   </g>
   <g id="FillBetweenPolyCollection_1">
    <defs>
     <path id="m860edfe7cf" d="M 63.001241 -129.668801 
L 63.001241 -125.693794 
L 115.927498 -106.870353 
L 168.853755 -85.2859 
L 221.780011 -56.797987 
L 221.780011 -67.518874 
L 221.780011 -67.518874 
L 168.853755 -98.566631 
L 115.927498 -112.385271 
L 63.001241 -129.668801 
z
"/>
    </defs>
    <g clip-path="url(#p6361609ad9)">
     <use xlink:href="#m860edfe7cf" x="0" y="186.796157" style="fill: #2a78d6; fill-opacity: 0.16"/>
    </g>
   </g>
   <g id="FillBetweenPolyCollection_2">
    <defs>
     <path id="maf36670021" d="M 63.001241 -135.776437 
L 63.001241 -131.063893 
L 115.927498 -107.778668 
L 168.853755 -78.950721 
L 221.780011 -47.876082 
L 221.780011 -57.081294 
L 221.780011 -57.081294 
L 168.853755 -88.360181 
L 115.927498 -108.227272 
L 63.001241 -135.776437 
z
"/>
    </defs>
    <g clip-path="url(#p6361609ad9)">
     <use xlink:href="#maf36670021" x="0" y="186.796157" style="fill: #8b46d6; fill-opacity: 0.16"/>
    </g>
   </g>
   <g id="FillBetweenPolyCollection_3">
    <defs>
     <path id="m4ceba7dcc3" d="M 63.001241 -140.616189 
L 63.001241 -138.593827 
L 115.927498 -121.526706 
L 168.853755 -96.117197 
L 238.81846 -68.277435 
L 238.81846 -73.495775 
L 238.81846 -73.495775 
L 168.853755 -100.227281 
L 115.927498 -123.593318 
L 63.001241 -140.616189 
z
"/>
    </defs>
    <g clip-path="url(#p6361609ad9)">
     <use xlink:href="#m4ceba7dcc3" x="0" y="186.796157" style="fill: #d94f2b; fill-opacity: 0.16"/>
    </g>
   </g>
   <g id="FillBetweenPolyCollection_4">
    <defs>
     <path id="m8c6e17e22b" d="M 63.001241 -138.249431 
L 63.001241 -118.521426 
L 115.927498 -86.624504 
L 168.853755 -52.055001 
L 168.853755 -75.82346 
L 168.853755 -75.82346 
L 115.927498 -125.258193 
L 63.001241 -138.249431 
z
"/>
    </defs>
    <g clip-path="url(#p6361609ad9)">
     <use xlink:href="#m8c6e17e22b" x="0" y="186.796157" style="fill: #12916a; fill-opacity: 0.16"/>
    </g>
   </g>
   <g id="patch_3">
    <path d="M 42.046219 162.95811 
L 42.046219 1.44 
" style="fill: none; stroke: #3a3a36; stroke-width: 0.6; stroke-linejoin: miter; stroke-linecap: square"/>
   </g>
   <g id="patch_4">
    <path d="M 42.046219 162.95811 
L 283.699762 162.95811 
" style="fill: none; stroke: #3a3a36; stroke-width: 0.6; stroke-linejoin: miter; stroke-linecap: square"/>
   </g>
   <g id="text_11">
    <text style="font-size: 6.6px; font-family: 'Helvetica', 'Arial', 'DejaVu Sans', sans-serif; text-anchor: middle; fill: #2a78d6" x="221.780011" y="139.204352" transform="rotate(-0 221.780011 139.204352)">3-bit flip-flop</text>
   </g>
   <g id="text_12">
    <text style="font-size: 6.6px; font-family: 'Helvetica', 'Arial', 'DejaVu Sans', sans-serif; text-anchor: middle; fill: #8b46d6" x="221.780011" y="151.061034" transform="rotate(-0 221.780011 151.061034)">6-bit flip-flop</text>
   </g>
   <g id="text_13">
    <text style="font-size: 6.6px; font-family: 'Helvetica', 'Arial', 'DejaVu Sans', sans-serif; text-anchor: start; fill: #d94f2b" x="244.81846" y="117.28361" transform="rotate(-0 244.81846 117.28361)">CDDM</text>
   </g>
   <g id="text_14">
    <!-- DMTS, 7$\tau$ delay -->
    <g style="fill: #12916a" transform="translate(145.027755 137.469191)">
     <text>
      <tspan x="0" y="-0.140625" style="font-size: 6.6px; font-family: 'Helvetica'; fill: #12916a">D</tspan>
      <tspan x="4.761795" y="-0.140625" style="font-size: 6.6px; font-family: 'Helvetica'; fill: #12916a">M</tspan>
      <tspan x="10.25444" y="-0.140625" style="font-size: 6.6px; font-family: 'Helvetica'; fill: #12916a">T</tspan>
      <tspan x="14.282166" y="-0.140625" style="font-size: 6.6px; font-family: 'Helvetica'; fill: #12916a">S</tspan>
      <tspan x="18.680145" y="-0.140625" style="font-size: 6.6px; font-family: 'Helvetica'; fill: #12916a">,</tspan>
      <tspan x="20.5121" y="-0.140625" style="font-size: 6.6px; font-family: 'Helvetica'; fill: #12916a"> </tspan>
      <tspan x="22.344055" y="-0.140625" style="font-size: 6.6px; font-family: 'Helvetica'; fill: #12916a">7</tspan>
      <tspan x="29.980957" y="-0.140625" style="font-size: 6.6px; font-family: 'Helvetica'; fill: #12916a"> </tspan>
      <tspan x="31.812912" y="-0.140625" style="font-size: 6.6px; font-family: 'Helvetica'; fill: #12916a">d</tspan>
      <tspan x="35.480042" y="-0.140625" style="font-size: 6.6px; font-family: 'Helvetica'; fill: #12916a">e</tspan>
      <tspan x="39.147171" y="-0.140625" style="font-size: 6.6px; font-family: 'Helvetica'; fill: #12916a">l</tspan>
      <tspan x="40.612091" y="-0.140625" style="font-size: 6.6px; font-family: 'Helvetica'; fill: #12916a">a</tspan>
      <tspan x="44.279221" y="-0.140625" style="font-size: 6.6px; font-family: 'Helvetica'; fill: #12916a">y</tspan>
      <tspan x="26.011185" y="-0.140625" style="font-style: oblique; font-size: 6.6px; font-family: 'DejaVu Sans'; fill: #12916a">τ</tspan>
     </text>
    </g>
   </g>
   <g id="line2d_14">
    <path d="M 63.001241 59.32354 
L 115.927498 77.536131 
L 168.853755 96.409124 
L 221.780011 123.402852 
" clip-path="url(#p6361609ad9)" style="fill: none; stroke: #2a78d6; stroke-width: 1.4; stroke-linecap: square"/>
    <defs>
     <path id="m382b4633e5" d="M 0 2.25 
C 0.596707 2.25 1.169055 2.012926 1.59099 1.59099 
C 2.012926 1.169055 2.25 0.596707 2.25 0 
C 2.25 -0.596707 2.012926 -1.169055 1.59099 -1.59099 
C 1.169055 -2.012926 0.596707 -2.25 0 -2.25 
C -0.596707 -2.25 -1.169055 -2.012926 -1.59099 -1.59099 
C -2.012926 -1.169055 -2.25 -0.596707 -2.25 0 
C -2.25 0.596707 -2.012926 1.169055 -1.59099 1.59099 
C -1.169055 2.012926 -0.596707 2.25 0 2.25 
z
" style="stroke: #2a78d6"/>
    </defs>
    <g clip-path="url(#p6361609ad9)">
     <use xlink:href="#m382b4633e5" x="63.001241" y="59.32354" style="fill: #2a78d6; stroke: #2a78d6"/>
     <use xlink:href="#m382b4633e5" x="115.927498" y="77.536131" style="fill: #2a78d6; stroke: #2a78d6"/>
     <use xlink:href="#m382b4633e5" x="168.853755" y="96.409124" style="fill: #2a78d6; stroke: #2a78d6"/>
     <use xlink:href="#m382b4633e5" x="221.780011" y="123.402852" style="fill: #2a78d6; stroke: #2a78d6"/>
    </g>
   </g>
   <g id="line2d_15">
    <path d="M 63.001241 52.856663 
L 115.927498 78.767814 
L 168.853755 104.170529 
L 221.780011 135.259534 
" clip-path="url(#p6361609ad9)" style="fill: none; stroke: #8b46d6; stroke-width: 1.4; stroke-linecap: square"/>
    <defs>
     <path id="m617f50ace2" d="M 0 2.25 
C 0.596707 2.25 1.169055 2.012926 1.59099 1.59099 
C 2.012926 1.169055 2.25 0.596707 2.25 0 
C 2.25 -0.596707 2.012926 -1.169055 1.59099 -1.59099 
C 1.169055 -2.012926 0.596707 -2.25 0 -2.25 
C -0.596707 -2.25 -1.169055 -2.012926 -1.59099 -1.59099 
C -2.012926 -1.169055 -2.25 -0.596707 -2.25 0 
C -2.25 0.596707 -2.012926 1.169055 -1.59099 1.59099 
C -1.169055 2.012926 -0.596707 2.25 0 2.25 
z
" style="stroke: #8b46d6"/>
    </defs>
    <g clip-path="url(#p6361609ad9)">
     <use xlink:href="#m617f50ace2" x="63.001241" y="52.856663" style="fill: #8b46d6; stroke: #8b46d6"/>
     <use xlink:href="#m617f50ace2" x="115.927498" y="78.767814" style="fill: #8b46d6; stroke: #8b46d6"/>
     <use xlink:href="#m617f50ace2" x="168.853755" y="104.170529" style="fill: #8b46d6; stroke: #8b46d6"/>
     <use xlink:href="#m617f50ace2" x="221.780011" y="135.259534" style="fill: #8b46d6; stroke: #8b46d6"/>
    </g>
   </g>
   <g id="line2d_16">
    <path d="M 63.001241 47.181872 
L 115.927498 64.53344 
L 168.853755 88.229526 
L 238.81846 115.60422 
" clip-path="url(#p6361609ad9)" style="fill: none; stroke: #d94f2b; stroke-width: 1.4; stroke-linecap: square"/>
    <defs>
     <path id="m5e1ed7ec73" d="M 0 2.25 
C 0.596707 2.25 1.169055 2.012926 1.59099 1.59099 
C 2.012926 1.169055 2.25 0.596707 2.25 0 
C 2.25 -0.596707 2.012926 -1.169055 1.59099 -1.59099 
C 1.169055 -2.012926 0.596707 -2.25 0 -2.25 
C -0.596707 -2.25 -1.169055 -2.012926 -1.59099 -1.59099 
C -2.012926 -1.169055 -2.25 -0.596707 -2.25 0 
C -2.25 0.596707 -2.012926 1.169055 -1.59099 1.59099 
C -1.169055 2.012926 -0.596707 2.25 0 2.25 
z
" style="stroke: #d94f2b"/>
    </defs>
    <g clip-path="url(#p6361609ad9)">
     <use xlink:href="#m5e1ed7ec73" x="63.001241" y="47.181872" style="fill: #d94f2b; stroke: #d94f2b"/>
     <use xlink:href="#m5e1ed7ec73" x="115.927498" y="64.53344" style="fill: #d94f2b; stroke: #d94f2b"/>
     <use xlink:href="#m5e1ed7ec73" x="168.853755" y="88.229526" style="fill: #d94f2b; stroke: #d94f2b"/>
     <use xlink:href="#m5e1ed7ec73" x="238.81846" y="115.60422" style="fill: #d94f2b; stroke: #d94f2b"/>
    </g>
   </g>
   <g id="line2d_17">
    <path d="M 63.001241 56.976181 
L 115.927498 82.211277 
L 168.853755 121.585191 
" clip-path="url(#p6361609ad9)" style="fill: none; stroke: #12916a; stroke-width: 1.4; stroke-linecap: square"/>
    <defs>
     <path id="mb6338d3b40" d="M 0 2.25 
C 0.596707 2.25 1.169055 2.012926 1.59099 1.59099 
C 2.012926 1.169055 2.25 0.596707 2.25 0 
C 2.25 -0.596707 2.012926 -1.169055 1.59099 -1.59099 
C 1.169055 -2.012926 0.596707 -2.25 0 -2.25 
C -0.596707 -2.25 -1.169055 -2.012926 -1.59099 -1.59099 
C -2.012926 -1.169055 -2.25 -0.596707 -2.25 0 
C -2.25 0.596707 -2.012926 1.169055 -1.59099 1.59099 
C -1.169055 2.012926 -0.596707 2.25 0 2.25 
z
" style="stroke: #12916a"/>
    </defs>
    <g clip-path="url(#p6361609ad9)">
     <use xlink:href="#mb6338d3b40" x="63.001241" y="56.976181" style="fill: #12916a; stroke: #12916a"/>
     <use xlink:href="#mb6338d3b40" x="115.927498" y="82.211277" style="fill: #12916a; stroke: #12916a"/>
     <use xlink:href="#mb6338d3b40" x="168.853755" y="121.585191" style="fill: #12916a; stroke: #12916a"/>
    </g>
   </g>
  </g>
 </g>
 <defs>
  <clipPath id="p6361609ad9">
   <rect x="42.046219" y="1.44" width="241.653543" height="161.51811"/>
  </clipPath>
 </defs>
</svg>
